<svg id="Layer_1" data-name="Layer 1" xmlns="http://www.w3.org/2000/svg" viewBox="0 0 72.02 37.75"><defs><style>.cls-1{fill:#fff;}</style></defs><title>favicon</title><path class="cls-1" d="M47,0,31.12,37.75H27.25L43.12,0Z" transform="translate(-27.25)"/><path class="cls-1" d="M74.31,20.75a15.51,15.51,0,0,1-.8,5.19,11,11,0,0,1-2.28,3.81,9.89,9.89,0,0,1-3.58,2.44A12.87,12.87,0,0,1,62.9,33a22.93,22.93,0,0,1-4.22-.39,22,22,0,0,1-4.27-1.25V0h4V9l-.18,4.31A10.54,10.54,0,0,1,62,10a9.53,9.53,0,0,1,4.26-1,7,7,0,0,1,3.5.84,7.21,7.21,0,0,1,2.53,2.35,11.09,11.09,0,0,1,1.53,3.67A21.1,21.1,0,0,1,74.31,20.75Zm-4.13.19a18.88,18.88,0,0,0-.27-3.36,8.84,8.84,0,0,0-.79-2.67,4.72,4.72,0,0,0-1.49-1.71,3.75,3.75,0,0,0-2.16-.61,5.07,5.07,0,0,0-1.55.24,6.21,6.21,0,0,0-1.63.81,12.24,12.24,0,0,0-1.79,1.51,24.79,24.79,0,0,0-2,2.33V28.75a17.26,17.26,0,0,0,2.42.73,11.49,11.49,0,0,0,2.34.26,7.72,7.72,0,0,0,2.65-.44,5.41,5.41,0,0,0,2.21-1.44,7.42,7.42,0,0,0,1.53-2.74,13.43,13.43,0,0,0,.53-4.23Z" transform="translate(-27.25)"/><path class="cls-1" d="M99.24,32.75h-4V17.9a6.62,6.62,0,0,0-1-4,3.4,3.4,0,0,0-2.88-1.33,4.86,4.86,0,0,0-1.52.22,5.49,5.49,0,0,0-1.48.77A12.29,12.29,0,0,0,86.69,15c-.6.62-1.29,1.39-2.08,2.32v15.4h-4V0h4V9.48l-.14,3.66a16,16,0,0,1,1.86-1.91A10.68,10.68,0,0,1,88.12,10,7.2,7.2,0,0,1,90,9.27a9.64,9.64,0,0,1,2-.21,6.91,6.91,0,0,1,5.39,2.12c1.26,1.42,1.9,3.55,1.9,6.39Z" transform="translate(-27.25)"/></svg>