<svg id="Layer_1" data-name="Layer 1" xmlns="http://www.w3.org/2000/svg" viewBox="0 0 128 128"><defs><style>.cls-1{fill:#fff;}</style></defs><title>logo-white-blackbg</title><circle cx="64" cy="64" r="64"/><path class="cls-1" d="M38,61.87a12.47,12.47,0,0,1-.37,3.26,7.49,7.49,0,0,1-1.23,2.59,5.93,5.93,0,0,1-2.08,1.7,6.44,6.44,0,0,1-2.89.62,6,6,0,0,1-2.29-.43,9.26,9.26,0,0,1-1.89-1.08,12.78,12.78,0,0,1-1.6-1.42q-.73-.77-1.44-1.41a10,10,0,0,0-1.4-1.08,2.86,2.86,0,0,0-1.49-.43,2.23,2.23,0,0,0-2,1.09,6.85,6.85,0,0,0-.66,3.43H14.88a11.26,11.26,0,0,1,.36-3.25,7.54,7.54,0,0,1,1.23-2.6,5.66,5.66,0,0,1,2.07-1.72,6.36,6.36,0,0,1,2.88-.61,5.82,5.82,0,0,1,2.3.43A8.41,8.41,0,0,1,25.61,62a12.71,12.71,0,0,1,1.6,1.41q.73.77,1.44,1.41a8.65,8.65,0,0,0,1.4,1.08,2.74,2.74,0,0,0,1.48.43,2.23,2.23,0,0,0,2.09-1.06,7.09,7.09,0,0,0,.63-3.44Z" transform="translate(0 0)"/><path class="cls-1" d="M61.89,45.25,46,83H42.13L58,45.25Z" transform="translate(0 0)"/><path class="cls-1" d="M89.19,66a15.76,15.76,0,0,1-.8,5.19A10.93,10.93,0,0,1,86.11,75a9.79,9.79,0,0,1-3.58,2.44,12.76,12.76,0,0,1-4.75.84,23.59,23.59,0,0,1-4.22-.39,21.62,21.62,0,0,1-4.27-1.25V45.25h4v9l-.18,4.31a10.47,10.47,0,0,1,3.72-3.3,9.51,9.51,0,0,1,4.26-1,7.08,7.08,0,0,1,3.5.84,7.27,7.27,0,0,1,2.53,2.35,11.15,11.15,0,0,1,1.53,3.67A20.67,20.67,0,0,1,89.19,66Zm-4.13.19a19.38,19.38,0,0,0-.27-3.36A9,9,0,0,0,84,60.16a4.72,4.72,0,0,0-1.49-1.71,3.73,3.73,0,0,0-2.16-.61,5.32,5.32,0,0,0-1.55.24,6.18,6.18,0,0,0-1.63.81,12,12,0,0,0-1.79,1.51,24.6,24.6,0,0,0-2,2.33V74a17.26,17.26,0,0,0,2.42.73,11.56,11.56,0,0,0,2.34.26,7.8,7.8,0,0,0,2.65-.44A5.37,5.37,0,0,0,83,73.11a7.41,7.41,0,0,0,1.53-2.74A13.43,13.43,0,0,0,85.06,66.14Z" transform="translate(0 0)"/><path class="cls-1" d="M114.12,78h-4V63.15a6.61,6.61,0,0,0-1-4,3.41,3.41,0,0,0-2.88-1.33,4.94,4.94,0,0,0-1.52.22,5.26,5.26,0,0,0-1.48.77,12.72,12.72,0,0,0-1.67,1.47c-.6.62-1.29,1.39-2.08,2.32V78h-4V45.25h4v9.48l-.14,3.66a16.2,16.2,0,0,1,1.86-1.91A10.41,10.41,0,0,1,103,55.22a7.15,7.15,0,0,1,1.86-.7,9.15,9.15,0,0,1,2-.21,6.89,6.89,0,0,1,5.39,2.12c1.26,1.42,1.9,3.55,1.9,6.39Z" transform="translate(0 0)"/></svg>